/* XPM */
static char *_0157e19f4ef4a5dd0ad241c56d5bcdbGeifEoMswAERoFk4[] = {
/* columns rows colors chars-per-pixel */
"30 30 22 1 ",
"  c #80602F",
". c #422C10",
"X c #ED003B",
"o c #FFD100",
"O c #DCB815",
"+ c #BC9972",
"@ c black",
"# c #AC8C67",
"$ c #22132A",
"% c #100C0C",
"& c #1D0000",
"* c #03848E",
"= c #009BA7",
"- c #B2C2C2",
"; c #05929D",
": c #058089",
"> c #168992",
", c #521D1D",
"< c yellow",
"1 c #FFE01A",
"2 c #191717",
"3 c #062408",
/* pixels */
"     .      .      .      .   ",
"     .      . XXX  .      .   ",
"...........XXXXoXXX...........",
"   .    .  XXXoOoXXX    .     ",
"   .    .  XX+++++XX    .     ",
"...........XX+@++@#X..........",
"    .  $$$$%#+++++#.  .    .  ",
"    . $&&&$$#++@@+#   .    .  ",
"......&&$*$=-+###+-$**........",
"   . $&&**=$$-----;$&**  .    ",
"   . $&$**==$;;-;;;=&&*  .    ",
".....$&$**==&&;;;====$*.......",
"    .$&$**==&$===:::=$*.      ",
"    .$&$**==$====>>>=$*.      ",
"......$$**$&&====>>>$**.......",
"   .  $$**$==========**   .   ",
"   .  $&++===========++   .   ",
".......$$&===========.........",
"     .    =========== .     . ",
"     .    @,@,@<@,@,@ .     . ",
"..........,@,@,1,@,@,.........",
"   .     .22222222222    .    ",
"   .     .22222222222    .    ",
"..........22222222222.........",
"     .    22222 2222 .      . ",
"     .     2222 2222 .      . ",
"...........2222.222...........",
"    .    . 322. 322 .    .    ",
"    .    . 3233 3233.    .    ",
"...........3333.3333.........."
};
