/* XPM */
static char *_fae09080f6d4659e8f73090d392dcf0aFnHRS0Jo1I6XAaA[] = {
/* columns rows colors chars-per-pixel */
"30 30 7 1 ",
"  c #80602F",
". c #422C10",
"X c #1386A1",
"o c #ADFFF5",
"O c #0EFFE2",
"+ c #189D8D",
"@ c #21CDB8",
/* pixels */
"     .      .      .      .   ",
"     .      .      .      .   ",
"..............................",
"   .    .    .    .     .     ",
"   .    .    .    .     .     ",
"..........XXXXXXXXX...........",
"    .    XXooooooOX   .    .  ",
"    .    XoooOOOoOX   .    .  ",
"........XXoOOOOOOOXX..........",
"   .    XooOOOoOOOOXX    .    ",
"   .   XXoOOOooO+O++XX   .    ",
".......XooOOoooOO+O+OXX.......",
"    . XXoOOOOOOO+@OO+OX.      ",
"    . XoOooOOooO+@@@+OX.      ",
"......XoOOooOo@O+@@@++X.......",
"   .  XoooOoooO@@@@+++X   .   ",
"   .  XoOOOOooOOOO@@++X   .   ",
"......XOOOO@Ooo@++@@++X.......",
"     .XXOO@@@oo++OO++XX     . ",
"     . XXO@@@@++OO+OOX.     . ",
"........XOO@@@OO++OOXX........",
"   .    XXOOOOO@OOXXX    .    ",
"   .     XXXXXXXXXX.     .    ",
"..............................",
"     .     .    .    .      . ",
"     .     .    .    .      . ",
"..............................",
"    .    .    .     .    .    ",
"    .    .    .     .    .    ",
".............................."
};
