/* XPM */
static char *a12aeb382d63495efc0bf2032650d37dSdLXYx1r5k5skVcZ[] = {
/* columns rows colors chars-per-pixel */
"30 30 184 2 ",
"   c #80602F",
".  c #422C10",
"X  c #73562B",
"o  c black",
"O  c #7A5B2D",
"+  c #090602",
"@  c #0A0805",
"#  c #B22203",
"$  c #785A2C",
"%  c #0A0804",
"&  c #BF2301",
"*  c #FFD400",
"=  c #422B12",
"-  c #3D290F",
";  c #130401",
":  c #521001",
">  c #3F2A0F",
",  c #412B10",
"<  c #3A260E",
"1  c #0A0201",
"2  c #CD2600",
"3  c #6A3842",
"4  c #3E290F",
"5  c #0E0B06",
"6  c #D62701",
"7  c #E72A01",
"8  c #DB2801",
"9  c #681502",
"0  c #705429",
"q  c #1D0C05",
"w  c #D42701",
"e  c #E92B00",
"r  c #D92801",
"t  c #481304",
"y  c #744B38",
"u  c #683345",
"i  c #5D204F",
"p  c #020102",
"a  c #EE2B00",
"s  c #EC2B00",
"d  c #701501",
"f  c #010001",
"g  c #000001",
"h  c #EC2B01",
"j  c #460D01",
"k  c #442220",
"l  c #471734",
"z  c #4A0F46",
"x  c #35230D",
"c  c #DD2801",
"v  c #E42A00",
"b  c #DD2800",
"n  c #DE2900",
"m  c #E12901",
"M  c #6A1502",
"N  c #5E2050",
"B  c #644B25",
"V  c #ED2B01",
"C  c #E52A01",
"Z  c #EA2B00",
"A  c #EE2B01",
"S  c #1A0501",
"D  c #1B0501",
"F  c #B22101",
"G  c #EE2C01",
"H  c #B22001",
"J  c #471834",
"K  c #34220D",
"L  c #811801",
"P  c #DC2801",
"I  c #010101",
"U  c #AB1F01",
"Y  c #62274C",
"T  c #721501",
"R  c #C02301",
"E  c #211101",
"W  c #7C5932",
"Q  c #62284B",
"!  c #7D5C31",
"~  c #090201",
"^  c #180D01",
"/  c #1C1001",
"(  c #120901",
")  c #6C1401",
"_  c #BE2301",
"`  c #0B0301",
"'  c #0D0501",
"]  c #AD1F01",
"[  c #432817",
"{  c #A58939",
"}  c #422915",
"|  c #D42700",
" . c #DE2901",
".. c #E72A00",
"X. c #461C2C",
"o. c #664D26",
"O. c #190903",
"+. c #E42A01",
"@. c #D02601",
"#. c #EE2C00",
"$. c #6D1703",
"%. c #E62A01",
"&. c #CD2602",
"*. c #3D280F",
"=. c #6E3E40",
"-. c #412C10",
";. c #73562A",
":. c #1A0500",
">. c #D72701",
",. c #EF2C01",
"<. c #F02C01",
"1. c #EF2B00",
"2. c #230701",
"3. c #CE2601",
"4. c #CC2500",
"5. c #402B10",
"6. c #35220C",
"7. c #DD2902",
"8. c #EC5801",
"9. c #ED6900",
"0. c #EC6A01",
"q. c #EC2A00",
"w. c #E22902",
"e. c #DD2901",
"r. c #B12102",
"t. c #0A0703",
"y. c #7C5D2E",
"u. c #6A3B3E",
"i. c #402A0F",
"p. c #594120",
"a. c #FA5C01",
"s. c #FF7000",
"d. c #FF7100",
"f. c #E02901",
"g. c #C02401",
"h. c #1C1007",
"j. c #DA2801",
"k. c #E02900",
"l. c #1B0602",
"z. c #72562A",
"x. c #563C1C",
"c. c #EB2B00",
"v. c #D52701",
"b. c #070502",
"n. c #AB2002",
"m. c #EF2C02",
"M. c #D12602",
"N. c #D82801",
"B. c #C32402",
"V. c #210701",
"C. c #010102",
"Z. c #F95C01",
"A. c #FF7101",
"S. c #6A4F27",
"D. c #ED2F01",
"F. c #F95901",
"G. c #FE6B00",
"H. c #EE3101",
"J. c #705329",
"K. c #5F3537",
"L. c #6D5228",
"P. c #71552A",
"I. c #F85600",
"U. c #FE6E00",
"Y. c #FD6900",
"T. c #7E5F2E",
"R. c #3B270E",
"E. c #EE3000",
"W. c #EF3301",
"Q. c #EF3200",
"!. c #ED2B00",
"~. c #060100",
"^. c #77592C",
"/. c #6E5329",
"(. c #663146",
"). c #694E27",
"_. c #CC2502",
"`. c #422914",
"'. c #461B2F",
"]. c #422A13",
"[. c #020000",
"{. c #120300",
"}. c #3C280F",
"|. c #1B0500",
/* pixels */
"          .         X o o O           + o           .       ",
"          .         @ # o o       $ % & o o         .       ",
". . . * = . . . . - ; & : o > . , < 1 2 o o , . . . . . . . ",
"      * 3       4 5 6 7 8 9 o   0 q w e r t o   .           ",
"  * y * u * i   - p a s s d f g f ; h s s j o   .           ",
". * k * l * z x o c s s s v b b b n s s s m M o . . . . . . ",
"  * y * l * N B o V C C Z s s s s s s C C Z d o       .     ",
"  * y * l * N B o A S D F V s s s s G D D H d o       .     ",
". * k * J * z K o A g * o L s s s P I * o U d o . . . . . . ",
"  * * * * * Y B o A g * * o T s R E * * o U d o   .         ",
"  W * * * Q ! B o A ~ ^ / ( ) s _ ` / / ' ] d o   .         ",
". . [ * { } . K o V | | | |  .s ..| | | | C d o . . . . . . ",
"      * X.    B o h s s s s s s s s h s s s d o             ",
"      * X.    o.O.P s s s +.P P P @.o #.s m $.o             ",
". . . * X.. . , < o %.C Z o o o o o &.C C o o *.. . . . . . ",
"      * =.      -.;.:.S F m 6 6 6 >.,.S S   O       .       ",
"      * =.      - o <.1.o o o o o o 2.3.4.o o o o o .       ",
". . . * X.. 5.6.o 7.s s 8.9.9.9.9.9.0.q.s w.e.e.e.r.t.. . . ",
"    y.* u.i.p.o 3.C s s a.s.s.s.s.s.d.q.s o o o o f.g.h.i.  ",
"    o o o o o j.k.l.a s a.s.s.s.s.s.d.q.s o   z.x.o c.v.b.  ",
". . o n.m.M.N.B.V.C.1.s Z.s.s.s.s.s.A.q.s o . . > . o G o . ",
"    $ o o o o o S.I 1.s D.F.s.s.s.G.H.s s o       , J.; o   ",
"      * K.L.L.P.z.I 1.s s I.U.U.U.Y.s s s o       . T.L.L.  ",
". . . * X.. . . R.I 1.s h E.W.W.W.Q.!.s s o . . . . . . . . ",
"      * =..     z.I 1.s ~.~.~.~.~.~.~.#.s o             .   ",
"      * =..     z.I 1.s ~.^.^.^.- /.I #.s o             .   ",
". . . * X.. . . R.I 1.s ~.. . . . . I #.s o . . . . . . . . ",
"      * X.      z.I 1.s ~.^..     ^.I #.s o o     .         ",
"    * * * (.  ).~._.!.s ~.^..     ^.I #.s 6 o o   .         ",
". . `.* '.].. K [.{.{.{.~.. . . . }.I |.|.|.1 o . . . . . . "
};
