/* XPM */
static char *_73eaeddf1574b04941be1e5c1b12484Q3YoBlCXH5G75Bma[] = {
/* columns rows colors chars-per-pixel */
"30 30 43 1 ",
"  c #80602F",
". c #422C10",
"X c #D0D0D0",
"o c #B2C2C2",
"O c #452B10",
"+ c #BC9972",
"@ c #AC8C67",
"# c #E80909",
"$ c #432C10",
"% c #4C290F",
"& c black",
"* c #FFFD00",
"= c #9F3033",
"- c #B20A0A",
"; c #58250F",
": c #0F0A04",
"> c gray73",
", c #9D3433",
"< c #F8F403",
"1 c #010100",
"2 c #9C3032",
"3 c #815E2E",
"4 c #CA1B1D",
"5 c #9A3337",
"6 c #805F2F",
"7 c #442B10",
"8 c #53270F",
"9 c #5F441E",
"0 c #815D2E",
"q c #7E5E2E",
"w c #521D1D",
"e c yellow",
"r c #493213",
"t c #FFE01A",
"y c #482A10",
"u c #191717",
"i c #87542A",
"p c #231E19",
"a c #50280F",
"s c #62220E",
"d c #815F2E",
"f c gray72",
"g c #84582C",
/* pixels */
"     .      .XoXXXX.      .   ",
"     .      XXoXXXoo      .   ",
".......O...XXooXXoXoX.........",
"   .    .  ooXooXXoXX   .     ",
"   .    .  XoX+++++oo   .     ",
"............X@#++#+oX.........",
"    .    $  .@+++++@  .    .  ",
"    .    %  .@+&&++@  .    .  ",
"..........*=#o+@-@+o#=*.;.....",
"  ::>>  .==###ooooo#-#=, .    ",
" >:::>  .*=#---#o##--#=< .    ",
">>>:1&...==###--###-##=2......",
">>>>1&&  *=#***###--##=* 3    ",
" >>>  && ==#4*4##--###==      ",
"..>....&&*5#444#--##-#5*......",
"   .    &&+#--#--##-##++  .   ",
"  6.    .+&##---#---##    .   ",
"......7....##--#######.8......",
"     .     ###---#####9     . ",
"     .  0 q&w&w&e&w&w&r     . ",
"...........w&w&wtw&w-wy.......",
"   .     7 u-uuuuu---ui  .    ",
"   .     . p--uu---uuu   .    ",
"............u-uuuu-uuu.a......",
"   6 .     suuuu.uuuuu      . ",
"   d .     .u-uu.uu-u.      . ",
".............uuu.uuuu..y......",
"    .    $   uuf  uuf  g .    ",
"    .   0.  ffuf ffuf    .    ",
"............----.----........."
};
