/* XPM */
static char *_c9dd2adc81248538d7aefc2116c3e47yh2xZJkMnhfLdd2f[] = {
/* columns rows colors chars-per-pixel */
"30 30 5 1 ",
"  c #FF1B00",
". c #4B2D13",
"X c #FEC819",
"o c #CD6205",
"O c #100A05",
/* pixels */
"             ....             ",
" X  X  X    ......    X  X  X ",
" XX X XX   ........   XX X XX ",
"  XXXXX  ...oo..oo...  XXXXX  ",
"  XXXXX...oooo..oooo...XXXXX  ",
"   XX...oooooo..oooooo..XXX   ",
"   X..oooooooo..ooooooo..XX   ",
"   ..ooooooooo..oooooooo...   ",
" ...oooooooooo..oooooooooo... ",
"..oooooooooooo..oooooooooooo..",
".ooooooooooooo..ooooooooooooo.",
".oooo.o.o.oooo..oooo.o.o.oooo.",
".ooo.......ooo..ooo.......ooo.",
".oooo.o.o.oooo..oooo.o.o.oooo.",
".ooo.......ooo..ooo.......ooo.",
".oooo.o.o.oooo..oooo.o.o.oooo.",
".ooooooooooooo..ooooooooooooo.",
"..............................",
".ooooOooooOooo..ooooOooooOooo.",
".ooooOooooOooo..ooooOooooOooo.",
"..............................",
".ooooOooooOooX..XoooOooooOooo.",
".ooooOooooOooX..XoooOooooOooo.",
"..............................",
".ooooOooooOooo..ooooOooooOooo.",
".ooooOooooOooo..ooooOooooOooo.",
"..............................",
".ooooOooooOooo..ooooOooooOooo.",
".ooooOooooOooo..ooooOooooOooo.",
".............................."
};
