/* XPM */
static char *_4684c1995ef41b5959cbdda19b95b3euQ0dTddmSV5Tt3yz[] = {
/* columns rows colors chars-per-pixel */
"30 30 2 1 ",
"  c #80602F",
". c #422C10",
/* pixels */
"     .      .      .      .   ",
"     .      .      .      .   ",
"..............................",
"   .    .    .    .     .     ",
"   .    .    .    .     .     ",
"..............................",
"    .    .  .    .    .    .  ",
"    .    .  .    .    .    .  ",
"..............................",
"   .    .     .     .    .    ",
"   .    .     .     .    .    ",
"..............................",
"    .    .       .     .      ",
"    .    .       .     .      ",
"..............................",
"   .    .      .    .     .   ",
"   .    .      .    .     .   ",
"..............................",
"     .    .     .     .     . ",
"     .    .     .     .     . ",
"..............................",
"   .     .    .    .     .    ",
"   .     .    .    .     .    ",
"..............................",
"     .     .    .    .      . ",
"     .     .    .    .      . ",
"..............................",
"    .    .    .     .    .    ",
"    .    .    .     .    .    ",
".............................."
};
