/* XPM */
static char *e0bb3f05496d4921f7a733e06f0bc5c4S32IlVSKg4V1VtxH[] = {
/* columns rows colors chars-per-pixel */
"30 30 22 1 ",
"  c #80602F",
". c #422C10",
"X c #ED003B",
"o c #FFD100",
"O c #DCB815",
"+ c #BC9972",
"@ c #AC8C67",
"# c black",
"$ c #100C0C",
"% c #22132A",
"& c #1D0000",
"* c #03848E",
"= c #B2C2C2",
"- c #009BA7",
"; c #05929D",
": c #058089",
"> c #168992",
", c #521D1D",
"< c yellow",
"1 c #FFE01A",
"2 c #191717",
"3 c #062408",
/* pixels */
"     .      .      .      .   ",
"     .      .XXX   .      .   ",
"...........XXXoXXXX...........",
"   .    . XXXoOoXXX     .     ",
"   .    . XX+++++XX     .     ",
"..........X@#++#+XX...........",
"    .    ..@+++++@$%%%%    .  ",
"    .    . @+##++@%%&&&%   .  ",
"........**%=+@@@+=-%*%&&......",
"   .   **&%;=====%%-**&&%.    ",
"   .   *&&-;;;=;;%--**%&%.    ",
".......*%----;;;&&--**%&%.....",
"    .  *%-:::---%&--**%&%     ",
"    .  *%->>>----%--**%&%     ",
".......**%>>>----&&%**%%......",
"   .   **----------%**%%  .   ",
"   .   ++-----------++&%  .   ",
".........-----------&%%.......",
"     .   -----------  .     . ",
"     .   #,#,#<#,#,#  .     . ",
".........,#,#,1,#,#,..........",
"   .     22222222222     .    ",
"   .     22222222222     .    ",
".........22222222222..........",
"     .    2222 22222 .      . ",
"     .    2222 2222  .      . ",
"...........222.2222...........",
"    .    . 223. 223 .    .    ",
"    .    .3323.3323 .    .    ",
"..........3333.3333..........."
};
