/* XPM */
static char *_0d043051df9402eb96a4d2834872ee5Ttmg8NRidQgeeKAy[] = {
/* columns rows colors chars-per-pixel */
"30 30 2 1 ",
"  c #1A1916",
". c #3D493A",
/* pixels */
"                              ",
"                              ",
"  .. ..... .. .... .... ....  ",
"  .. ..... ..      ....       ",
"  ..       .. ....      ....  ",
"  .. .....    .... ...        ",
"     ..... ..      ... .....  ",
"  ..       .. ...      .....  ",
"  .. ..... .. ... ....        ",
"     .....        .... .....  ",
"  ..       .. ...      .....  ",
"  .. .... ... ..  .... .....  ",
"     ....        .....        ",
"  ..      ... ..       .....  ",
"  .. .... ... ... .... .....  ",
"  ..  ...      .. .... .....  ",
"          ....     ...        ",
"  ... ..  ........       ...  ",
"  ... ..     ..... ..... ...  ",
"  ...     ..       ....       ",
"      ... .. .....      ....  ",
"  ... ...    ..... ... .....  ",
"  ...     ..      ....        ",
"  .. .... .. ....      .....  ",
"     ....    .... .... .....  ",
"  ..      ..      ....        ",
"  .. .... .. ....      .....  ",
"  .. .... .. .... .... .....  ",
"                              ",
"                              "
};
